<?xml version="1.0" encoding="UTF-8" standalone="no"?>
<!-- Created with Inkscape (http://www.inkscape.org/) -->

<svg
   xmlns:dc="http://purl.org/dc/elements/1.1/"
   xmlns:cc="http://creativecommons.org/ns#"
   xmlns:rdf="http://www.w3.org/1999/02/22-rdf-syntax-ns#"
   xmlns:svg="http://www.w3.org/2000/svg"
   xmlns="http://www.w3.org/2000/svg"
   xmlns:sodipodi="http://sodipodi.sourceforge.net/DTD/sodipodi-0.dtd"
   xmlns:inkscape="http://www.inkscape.org/namespaces/inkscape"
   width="64"
   height="64"
   viewBox="0 0 16.933333 16.933333"
   version="1.1"
   id="svg8"
   inkscape:version="0.92.2 (5c3e80d, 2017-08-06)"
   sodipodi:docname="icon-64-white.svg"
   inkscape:export-filename="/home/cde/Repositories/rclteam.github.io/_images/icon-16.png"
   inkscape:export-xdpi="96.000008"
   inkscape:export-ydpi="96.000008">
  <defs
     id="defs2" />
  <sodipodi:namedview
     id="base"
     pagecolor="#ffffff"
     bordercolor="#666666"
     borderopacity="1.0"
     inkscape:pageopacity="0.0"
     inkscape:pageshadow="2"
     inkscape:zoom="5.0973893"
     inkscape:cx="19.299588"
     inkscape:cy="20.053745"
     inkscape:document-units="mm"
     inkscape:current-layer="layer1"
     showgrid="false"
     inkscape:window-width="1920"
     inkscape:window-height="1007"
     inkscape:window-x="0"
     inkscape:window-y="0"
     inkscape:window-maximized="1"
     units="px" />
  <metadata
     id="metadata5">
    <rdf:RDF>
      <cc:Work
         rdf:about="">
        <dc:format>image/svg+xml</dc:format>
        <dc:type
           rdf:resource="http://purl.org/dc/dcmitype/StillImage" />
        <dc:title></dc:title>
      </cc:Work>
    </rdf:RDF>
  </metadata>
  <g
     inkscape:label="Layer 1"
     inkscape:groupmode="layer"
     id="layer1"
     transform="translate(0,-280.06667)"
     style="display:inline">
    <path
       style="fill:#ffffff;stroke-width:0.0342302;fill-opacity:1"
       d="m 3.0868783,289.75873 c 0.013922,0.0201 -0.020212,0.14146 -0.075858,0.27047 -0.095277,0.22144 -0.099837,0.2548 -0.078242,0.56992 0.026325,0.38461 0.1121721,0.74072 0.2226778,0.92422 0.1342031,0.22265 0.4177214,0.55441 0.5332515,0.62357 0.061488,0.0402 0.2412243,0.17442 0.3994029,0.30584 0.3343551,0.27771 0.6884878,0.50767 1.1274685,0.73208 0.1717967,0.0876 0.4296226,0.22104 0.5729476,0.29579 0.3146533,0.16397 1.1936984,0.47407 1.842547,0.65022 0.2778084,0.0752 0.372208,0.0836 0.6966632,0.0595 0.2402407,-0.0201 0.5426307,-0.0699 0.8402373,-0.14428 0.2557048,-0.0635 0.6093784,-0.15031 0.7859357,-0.19251 0.1765562,-0.0434 0.3618132,-0.0968 0.4116722,-0.12217 0.04987,-0.0241 0.137888,-0.0514 0.195603,-0.0583 0.05772,-0.004 0.243225,-0.0888 0.412244,-0.18085 l 0.307307,-0.1684 0.549014,-0.0498 c 0.925384,-0.084 1.017887,-0.16437 0.963423,-0.83951 -0.02792,-0.34642 -0.03053,-0.35446 -0.19723,-0.64631 -0.203761,-0.35648 -0.45699,-0.60344 -0.786357,-0.76653 -0.241449,-0.11976 -0.309974,-0.19692 -0.153906,-0.17401 0.106369,0.0161 0.440282,0.19009 0.581622,0.30382 0.177765,0.14308 0.396444,0.42295 0.55609,0.71203 0.189912,0.34402 0.298471,0.42825 0.489262,0.38059 0.187313,-0.0482 0.306038,-0.18487 0.461844,-0.53704 0.116627,-0.26405 0.1323,-0.33237 0.130915,-0.57125 -0.002,-0.35929 0.02277,-0.47407 0.134847,-0.62329 0.11123,-0.14789 0.284986,-0.24676 0.554321,-0.31428 0.161269,-0.0402 0.195463,-0.0402 0.187337,0.002 -0.01129,0.0583 -0.08269,0.0969 -0.344537,0.18527 -0.222258,0.0748 -0.370236,0.24636 -0.400216,0.46302 -0.03258,0.23591 0.01221,0.71066 0.07674,0.81387 0.06496,0.10368 0.257388,0.1499 0.416098,0.10007 0.05668,-0.0201 0.307335,-0.0647 0.55702,-0.10409 0.249683,-0.0402 0.491987,-0.0932 0.538451,-0.11977 0.04646,-0.0241 0.192221,-0.18808 0.3239,-0.35969 0.273763,-0.35687 0.467917,-0.57112 0.523456,-0.57795 0.07917,-0.008 0.02253,0.10891 -0.141089,0.29619 -0.09304,0.1061 -0.267554,0.31669 -0.387821,0.46828 l -0.218659,0.27529 -0.323104,0.0836 c -0.183116,0.0482 -0.331921,0.10409 -0.343445,0.13061 -0.02611,0.0607 0.0475,0.32553 0.126432,0.45478 0.116339,0.1909 0.06082,0.1925 1.328603,-0.0402 0.331644,-0.0607 0.366621,-0.0611 0.328065,-0.008 -0.04471,0.0623 -0.654488,0.213 -1.066965,0.26444 -0.17456,0.0201 -0.193302,0.0281 -0.147211,0.0703 0.117946,0.10168 0.700073,0.36452 0.883397,0.39948 0.107856,0.0201 0.233903,0.0482 0.280114,0.0619 0.07646,0.0241 0.07914,0.0281 0.0298,0.0671 -0.124987,0.0985 -0.346132,0.0402 -1.004705,-0.28052 -0.161734,-0.078 -0.31738,-0.13905 -0.345878,-0.13544 -0.02848,0.003 -0.07483,0.0434 -0.10296,0.0844 -0.04345,0.0659 -0.04405,0.12057 -0.0039,0.3613 0.07018,0.42198 0.140511,0.4862 0.66195,0.60593 0.472994,0.10851 0.556953,0.13985 0.564081,0.20938 0.0078,0.0756 -0.177822,0.0514 -0.474707,-0.0611 -0.135543,-0.0514 -0.272426,-0.0908 -0.304186,-0.0868 -0.16584,0.0201 0.07949,0.27408 0.32968,0.3404 0.312978,0.0836 0.601851,0.18848 0.617256,0.22505 0.03639,0.0864 -0.194704,0.0434 -0.563146,-0.10167 -0.38121,-0.15112 -0.399526,-0.16357 -0.555043,-0.37095 -0.264702,-0.35366 -0.430879,-0.43215 -0.544935,-0.25801 -0.07912,0.12057 -0.0078,0.39626 0.157586,0.60822 0.07229,0.0924 0.164507,0.25721 0.204934,0.36572 0.09112,0.24394 0.175516,0.30905 0.657742,0.5079 0.364303,0.14991 0.613053,0.31026 0.584437,0.37657 -0.02125,0.049 -0.108285,0.0241 -0.262099,-0.0804 -0.07201,-0.0482 -0.276005,-0.14308 -0.453339,-0.2114 -0.177332,-0.0679 -0.347626,-0.14789 -0.378438,-0.17844 -0.03081,-0.0281 -0.137081,-0.19089 -0.236144,-0.35728 -0.198921,-0.33437 -0.351711,-0.45819 -0.513713,-0.4172 -0.124746,0.0322 -0.171745,0.19532 -0.191467,0.66678 -0.01844,0.44175 0.05844,1.04181 0.153557,1.19791 0.03217,0.0526 0.122075,0.16357 0.199845,0.24595 0.204766,0.21702 0.39918,0.50522 0.392497,0.5817 -0.0044,0.0506 -0.03639,0.0281 -0.13586,-0.0949 -0.3403,-0.42102 -0.452281,-0.54279 -0.494963,-0.53748 -0.02547,0.003 -0.05784,0.0679 -0.07198,0.14427 -0.0479,0.25802 -0.146046,0.50755 -0.185887,0.47267 -0.02551,-0.0241 -0.01253,-0.13022 0.04134,-0.34362 0.07761,-0.30664 0.07785,-0.31749 0.02045,-0.86273 -0.03193,-0.30383 -0.07255,-0.59295 -0.09021,-0.64283 -0.0465,-0.13182 -0.201669,-0.17401 -0.319389,-0.0876 -0.04918,0.0322 -0.106654,0.0945 -0.12765,0.12981 -0.02105,0.0322 -0.08878,0.10047 -0.150628,0.14508 -0.176195,0.1278 -0.183968,0.21301 -0.08946,0.98443 0.06157,0.50248 0.07297,0.67658 0.04452,0.68012 -0.04916,0.004 -0.08456,-0.12941 -0.162514,-0.62036 -0.03474,-0.21903 -0.07268,-0.39706 -0.0843,-0.39546 -0.0243,0.003 -0.16592,0.4553 -0.193109,0.61694 -0.02305,0.13705 -0.05735,0.23029 -0.0693,0.11374 -0.01434,-0.13946 0.03752,-0.54709 0.174873,-0.92595 0.155337,-0.4283 0.173295,-0.58427 0.10516,-0.91245 -0.05968,-0.28735 -0.134453,-0.39948 -0.321156,-0.47986 -0.102116,-0.0434 -0.137667,-0.0844 -0.177364,-0.20215 -0.115676,-0.34281 -0.149966,-0.41378 -0.243329,-0.503 -0.0883,-0.0844 -0.135289,-0.0949 -0.46143,-0.10691 -0.538838,-0.0201 -1.020511,0.0707 -1.398346,0.26324 -0.455094,0.23189 -2.3209777,0.72469 -2.7532004,0.72698 -0.2875127,0.002 -1.3100069,-0.24194 -1.5674879,-0.37336 -0.091319,-0.0482 -0.1715235,-0.0486 -0.4736814,-0.008 -0.4074523,0.0502 -0.4691876,0.0695 -1.2682662,0.39505 -0.5142059,0.20979 -1.0469578,0.46298 -1.181796,0.5616 -0.031422,0.0241 -0.053898,0.10449 -0.057367,0.20818 -0.012608,0.37617 -0.1963991,0.99733 -0.3524352,1.19124 -0.1071743,0.13303 -0.098381,0.0402 0.029968,-0.31588 0.2109571,-0.58568 0.2682657,-1.04516 0.135096,-1.08314 -0.052008,-0.0161 -0.3270748,0.34683 -0.6077773,0.79932 -0.050022,0.0804 -0.1176091,0.14508 -0.1572596,0.14991 -0.1076011,0.0161 -0.093691,-0.09 0.025361,-0.18809 0.058363,-0.0482 0.1046301,-0.10208 0.1028242,-0.11976 -0.00183,-0.0201 0.086884,-0.16236 0.1970888,-0.32272 0.1102056,-0.15955 0.1995551,-0.2986 0.1985561,-0.30825 -0.001,-0.008 -0.1600335,-0.008 -0.3534033,9.7e-4 -0.4258154,0.0241 -0.8375403,-0.0555 -0.996146,-0.1901 -0.1357142,-0.11494 -0.1086394,-0.15231 0.060469,-0.0844 0.07259,0.0281 0.2637365,0.0816 0.4247712,0.11614 0.2685292,0.0579 0.3257453,0.0575 0.6904582,-9.6e-4 0.3325701,-0.0534 0.4306669,-0.0836 0.5992401,-0.18286 0.427139,-0.25198 0.9470349,-0.47748 1.6606313,-0.72191 0.2489969,-0.0852 0.4515592,-0.16639 0.4501474,-0.18005 -0.00275,-0.0281 -0.52801,-0.32473 -0.8379494,-0.47455 -0.3019326,-0.14629 -0.6602177,-0.39305 -0.9723389,-0.66999 l -0.288588,-0.256 -0.1758668,0.0241 c -0.096727,0.008 -0.2760914,0.0699 -0.3985867,0.12941 -0.1860776,0.0896 -0.3006264,0.11735 -0.696282,0.16719 -0.4716287,0.0595 -0.474445,0.0595 -0.6901505,-0.0281 -0.260354,-0.10851 -0.3338039,-0.10328 -0.5817664,0.0434 -0.17053101,0.10167 -0.23658022,0.11976 -0.62572172,0.16718 -0.32434565,0.0402 -0.44552215,0.0434 -0.47614241,0.008 -0.02258811,-0.0241 -0.03253899,-0.0551 -0.02210892,-0.0695 0.01043408,-0.0161 0.21296917,-0.0502 0.4500899,-0.0792 0.38490476,-0.0482 0.45467155,-0.0659 0.65073705,-0.17442 0.1207871,-0.0671 0.2182759,-0.13463 0.2166448,-0.1503 -0.00642,-0.0627 -0.2794577,-0.22305 -0.46362761,-0.27208 -0.107075,-0.0281 -0.19666185,-0.074 -0.19941246,-0.10048 -0.00715,-0.0699 0.0817355,-0.0691 0.29597625,0.003 0.17661392,0.0587 0.23639182,0.0579 0.23004752,-0.004 -0.00664,-0.0647 -0.33455989,-0.50019 -0.46874378,-0.62249 -0.20985458,-0.1913 -0.14324425,-0.22224 0.0748103,-0.0322 0.16035803,0.13785 0.28350978,0.2986 0.60483298,0.78907 0.2045328,0.31267 0.4202797,0.44706 0.7249721,0.45285 0.2075799,0.004 0.8101973,-0.13946 0.9535962,-0.22707 0.057827,-0.0322 0.2014509,-0.0872 0.3191492,-0.11534 0.1177014,-0.0281 0.2087849,-0.0607 0.2024052,-0.0723 -0.051176,-0.094 -0.3173316,-0.38139 -0.515015,-0.5563 -0.1491263,-0.13182 -0.2606959,-0.26243 -0.2944857,-0.34442 -0.078372,-0.19049 -0.1073718,-0.213 -0.4158829,-0.32834 -0.1530963,-0.0571 -0.3250489,-0.14267 -0.3821156,-0.19009 -0.2488841,-0.20738 -0.5267436,-0.569 -0.4729811,-0.61529 0.029808,-0.0241 0.1132715,0.0506 0.186419,0.1704 0.1036447,0.16959 0.3890274,0.39947 0.591183,0.47551 0.2684565,0.10128 0.3220532,0.094 0.3079712,-0.0434 -0.017798,-0.17362 0.069351,-0.13946 0.1227332,0.0482 0.081251,0.28494 0.1136205,0.18085 0.084475,-0.27207 -0.024582,-0.3818 -0.019955,-0.44851 0.041838,-0.60059 0.085038,-0.20938 0.1763154,-0.33035 0.2117107,-0.28052 z m 10.7132717,2.12032 c -0.05067,0.11334 -0.142371,0.25842 -0.203785,0.32312 -0.102148,0.10691 -0.135278,0.12057 -0.388958,0.15393 -0.318493,0.0434 -0.31867,0.0434 -0.286171,0.41816 0.01506,0.17442 0.0057,0.21903 -0.06788,0.31991 -0.07618,0.10449 -0.0808,0.12981 -0.04292,0.23068 0.02342,0.0623 0.0772,0.14508 0.119641,0.18487 0.04244,0.0402 0.125147,0.20094 0.183782,0.35929 0.06227,0.16799 0.131232,0.2994 0.165824,0.31628 0.144656,0.0703 0.296586,0.21059 0.337267,0.31187 0.02434,0.0603 0.06687,0.23309 0.09454,0.3834 0.05576,0.30303 0.08227,0.32312 0.218318,0.16799 0.141314,-0.16156 0.218651,-0.20175 0.408816,-0.2122 l 0.181939,-0.008 0.019,-0.18286 c 0.03695,-0.35487 0.121476,-0.50204 0.30176,-0.52431 l 0.129328,-0.0161 -0.04031,-0.1897 c -0.04848,-0.22827 -0.0075,-0.32271 0.182312,-0.4215 l 0.124891,-0.0647 -0.02936,-0.2974 c -0.02177,-0.21983 -0.01731,-0.32312 0.01703,-0.39626 0.04553,-0.0969 0.04395,-0.10168 -0.08487,-0.24596 -0.104003,-0.11654 -0.145118,-0.20094 -0.197961,-0.40558 l -0.0667,-0.25802 -0.378586,0.0281 c -0.388781,0.0281 -0.466271,0.008 -0.519579,-0.11977 -0.04209,-0.10368 -0.07857,-0.0731 -0.177364,0.1471 z m 0.638397,0.65098 c 0.176464,0.0434 0.348176,0.18809 0.360419,0.30785 0.02141,0.20858 -0.03539,0.32031 -0.229367,0.45192 -0.417307,0.28293 -0.925899,0.14187 -0.968536,-0.26926 -0.01438,-0.13865 0.09935,-0.33879 0.241385,-0.4254 0.131466,-0.08 0.404941,-0.11012 0.596102,-0.0647 z"
       id="path2408"
       sodipodi:nodetypes="cssssssssssssscccssssssssssssssssssssscccsssssssssssssssssssssssssssssssssssssssssssssssssssssssssssssssssssssssssssssssssscccssssssssssssssssssssssssssssssssccssssssssssscccccccccsscccsccssssc"
       inkscape:connector-curvature="0" />
    <g
       id="g3268"
       transform="matrix(0.01326897,6.7150252e-4,5.9000409e-4,-0.01322219,5.6495717,277.16976)"
       style="fill:#ffffff;fill-opacity:0.98000002">
      <path
         id="path3270"
         d="m 398.07083,-291.35993 c 0,-30 -22,-43 -42,-43 -19,0 -41,13 -41,42 0,14 8,37 37,41 -22,19 -53,21 -63,21 -45,0 -79,-25 -93,-209 l -19,-249 c -8,-111 -44,-401.99997 -57,-453.99997 -21.999999,-90 -69.999999,-177 -164.999999,-177 -60.000001,0 -110.000001,35 -110.000001,83 0,30 22,43 42,43 18.999998,0 40.999998,-13 40.999998,-42 0,-14 -8,-37 -36.999998,-41 20.999998,-18 50.999998,-21 64.000001,-21 57,0 93,45 106,209 l 19,248.99997 c 9,121 44.999999,403 56.999999,458 17,76 56,173 151,173 60,0 110,-35 110,-83 z"
         inkscape:connector-curvature="0"
         style="fill:#ffffff;fill-opacity:0.98000002" />
    </g>
  </g>
</svg>
