<?xml version="1.0" encoding="UTF-8" standalone="no"?>
<!-- Created with Inkscape (http://www.inkscape.org/) -->

<svg
   xmlns:dc="http://purl.org/dc/elements/1.1/"
   xmlns:cc="http://creativecommons.org/ns#"
   xmlns:rdf="http://www.w3.org/1999/02/22-rdf-syntax-ns#"
   xmlns:svg="http://www.w3.org/2000/svg"
   xmlns="http://www.w3.org/2000/svg"
   xmlns:sodipodi="http://sodipodi.sourceforge.net/DTD/sodipodi-0.dtd"
   xmlns:inkscape="http://www.inkscape.org/namespaces/inkscape"
   width="16"
   height="16"
   viewBox="0 0 4.2333333 4.2333333"
   version="1.1"
   id="svg8"
   inkscape:version="0.92.2 (5c3e80d, 2017-08-06)"
   sodipodi:docname="icon-16.svg"
   inkscape:export-filename="/home/cde/Repositories/rclteam.github.io/_images/icon-16.png"
   inkscape:export-xdpi="96.000008"
   inkscape:export-ydpi="96.000008">
  <defs
     id="defs2" />
  <sodipodi:namedview
     id="base"
     pagecolor="#ffffff"
     bordercolor="#666666"
     borderopacity="1.0"
     inkscape:pageopacity="0.0"
     inkscape:pageshadow="2"
     inkscape:zoom="23.621786"
     inkscape:cx="3.073747"
     inkscape:cy="6.1038966"
     inkscape:document-units="mm"
     inkscape:current-layer="layer1"
     showgrid="false"
     inkscape:window-width="1920"
     inkscape:window-height="1007"
     inkscape:window-x="0"
     inkscape:window-y="0"
     inkscape:window-maximized="1"
     units="px" />
  <metadata
     id="metadata5">
    <rdf:RDF>
      <cc:Work
         rdf:about="">
        <dc:format>image/svg+xml</dc:format>
        <dc:type
           rdf:resource="http://purl.org/dc/dcmitype/StillImage" />
        <dc:title></dc:title>
      </cc:Work>
    </rdf:RDF>
  </metadata>
  <g
     inkscape:label="Layer 1"
     inkscape:groupmode="layer"
     id="layer1"
     transform="translate(0,-292.76667)">
    <path
       style="fill:#000000;stroke-width:0.00851969"
       d="m 0.78761645,295.18918 c 0.003466,0.005 -0.005032,0.0352 -0.0188858,0.0673 -0.0237204,0.0551 -0.0248557,0.0634 -0.0194793,0.14181 0.006554,0.0957 0.0279267,0.18431 0.0554385,0.22997 0.0334116,0.0554 0.10399714,0.13795 0.13275984,0.15516 0.0153083,0.01 0.0600559,0.0434 0.0994365,0.0761 0.083242,0.0691 0.1714079,0.12632 0.2806978,0.18216 0.042771,0.0218 0.1069601,0.055 0.1426427,0.0736 0.078337,0.0408 0.2971866,0.11796 0.4587258,0.16179 0.069164,0.0187 0.092666,0.0208 0.1734433,0.0148 0.059811,-0.005 0.1350949,-0.0174 0.2091879,-0.0359 0.063661,-0.0158 0.1517126,-0.0374 0.1956688,-0.0479 0.043956,-0.0108 0.090078,-0.0241 0.102491,-0.0304 0.012416,-0.006 0.034329,-0.0128 0.048698,-0.0145 0.014371,-10e-4 0.060554,-0.0221 0.1026334,-0.045 l 0.076508,-0.0419 0.136684,-0.0124 c 0.2303864,-0.0209 0.2534163,-0.0409 0.2398568,-0.20889 -0.00695,-0.0862 -0.0076,-0.0882 -0.049103,-0.16082 -0.050729,-0.0887 -0.1137737,-0.15015 -0.1957737,-0.19073 -0.060112,-0.0298 -0.077172,-0.049 -0.038317,-0.0433 0.026482,0.004 0.1096139,0.0473 0.1448023,0.0756 0.044257,0.0356 0.0987,0.10524 0.1384459,0.17717 0.047281,0.0856 0.074308,0.10656 0.1218081,0.0947 0.046634,-0.012 0.076192,-0.046 0.1149818,-0.13363 0.029036,-0.0657 0.032938,-0.0827 0.032593,-0.14214 -4.98e-4,-0.0894 0.00567,-0.11796 0.033572,-0.15509 0.027692,-0.0368 0.070951,-0.0614 0.1380054,-0.0782 0.04015,-0.01 0.048663,-0.01 0.04664,4.9e-4 -0.00281,0.0145 -0.020587,0.0241 -0.085777,0.0461 -0.055334,0.0186 -0.092175,0.0613 -0.099639,0.11521 -0.00811,0.0587 0.00304,0.17683 0.019105,0.20251 0.016173,0.0258 0.06408,0.0373 0.1035928,0.0249 0.01411,-0.005 0.076515,-0.0161 0.1386773,-0.0259 0.062162,-0.01 0.1224865,-0.0232 0.1340544,-0.0298 0.011566,-0.006 0.047856,-0.0468 0.080639,-0.0895 0.068157,-0.0888 0.116494,-0.14211 0.1303213,-0.14381 0.019711,-0.002 0.00561,0.0271 -0.035126,0.0737 -0.023163,0.0264 -0.066611,0.0788 -0.096553,0.11652 l -0.054438,0.0685 -0.080441,0.0208 c -0.045589,0.012 -0.082636,0.0259 -0.085505,0.0325 -0.0065,0.0151 0.011825,0.081 0.031477,0.11316 0.028964,0.0475 0.015142,0.0479 0.3307728,-0.01 0.082567,-0.0151 0.091275,-0.0152 0.081676,-0.002 -0.011132,0.0155 -0.1629433,0.053 -0.2656347,0.0658 -0.043459,0.005 -0.048125,0.007 -0.03665,0.0175 0.029364,0.0253 0.1742921,0.0907 0.219933,0.0994 0.026852,0.005 0.058233,0.012 0.069738,0.0154 0.019035,0.006 0.019703,0.007 0.00742,0.0167 -0.031117,0.0245 -0.086174,0.01 -0.2501341,-0.0698 -0.040266,-0.0194 -0.079016,-0.0346 -0.086111,-0.0337 -0.00709,8.7e-4 -0.01863,0.0108 -0.025633,0.021 -0.010818,0.0164 -0.010968,0.03 -9.835e-4,0.0899 0.017472,0.105 0.034982,0.12098 0.1648009,0.15077 0.1177579,0.027 0.1386607,0.0348 0.1404353,0.0521 0.00194,0.0188 -0.044271,0.0128 -0.1181845,-0.0152 -0.033745,-0.0128 -0.067824,-0.0226 -0.075731,-0.0216 -0.041288,0.005 0.01979,0.0682 0.082078,0.0847 0.07792,0.0208 0.1498386,0.0469 0.1536739,0.056 0.00906,0.0215 -0.048474,0.0108 -0.1402025,-0.0253 -0.094907,-0.0376 -0.099467,-0.0407 -0.138185,-0.0923 -0.065901,-0.088 -0.1072728,-0.10753 -0.1356685,-0.0642 -0.019697,0.03 -0.00193,0.0986 0.039233,0.15134 0.017998,0.023 0.040956,0.064 0.051021,0.091 0.022686,0.0607 0.043697,0.0769 0.1637533,0.12638 0.090698,0.0373 0.1526275,0.0772 0.1455031,0.0937 -0.00529,0.0122 -0.026959,0.006 -0.065253,-0.02 -0.017927,-0.012 -0.068715,-0.0356 -0.1128646,-0.0526 -0.044149,-0.0169 -0.086546,-0.0368 -0.094217,-0.0444 -0.00767,-0.007 -0.034128,-0.0475 -0.058791,-0.0889 -0.049524,-0.0832 -0.087563,-0.11401 -0.1278956,-0.10381 -0.031057,0.008 -0.042758,0.0486 -0.047668,0.16591 -0.00459,0.10992 0.014549,0.25923 0.03823,0.29807 0.00801,0.0131 0.030392,0.0407 0.049754,0.0612 0.050979,0.054 0.099381,0.12571 0.097717,0.14474 -0.00109,0.0126 -0.00906,0.007 -0.033824,-0.0236 -0.084722,-0.10476 -0.1126011,-0.13506 -0.1232275,-0.13374 -0.00634,7.4e-4 -0.014399,0.0169 -0.017919,0.0359 -0.011925,0.0642 -0.03636,0.12629 -0.046279,0.11761 -0.00635,-0.006 -0.00312,-0.0324 0.010292,-0.0855 0.019321,-0.0763 0.019382,-0.079 0.00509,-0.21467 -0.00795,-0.0756 -0.018063,-0.14754 -0.022458,-0.15995 -0.011578,-0.0328 -0.050208,-0.0433 -0.079516,-0.0218 -0.012245,0.008 -0.026553,0.0235 -0.03178,0.0323 -0.00524,0.008 -0.022104,0.025 -0.037501,0.0361 -0.043866,0.0318 -0.045801,0.053 -0.022271,0.24495 0.015329,0.12503 0.018166,0.16835 0.011084,0.16923 -0.012238,0.001 -0.021053,-0.0322 -0.04046,-0.15436 -0.00865,-0.0545 -0.018094,-0.0988 -0.020988,-0.0984 -0.00605,7.5e-4 -0.041308,0.11329 -0.048077,0.15351 -0.00574,0.0341 -0.014277,0.0573 -0.017252,0.0283 -0.00357,-0.0347 0.00934,-0.13613 0.043537,-0.2304 0.038673,-0.10657 0.043144,-0.14538 0.026181,-0.22704 -0.014857,-0.0715 -0.033474,-0.0994 -0.079956,-0.1194 -0.025423,-0.0108 -0.034274,-0.021 -0.044157,-0.0503 -0.028799,-0.0853 -0.037336,-0.10296 -0.06058,-0.12516 -0.021984,-0.021 -0.033682,-0.0236 -0.114879,-0.0266 -0.1341507,-0.005 -0.2540693,0.0176 -0.3481361,0.0655 -0.1133015,0.0577 -0.5778373,0.18032 -0.6854447,0.18089 -0.07158,3.9e-4 -0.3261431,-0.0602 -0.3902463,-0.0929 -0.022735,-0.012 -0.042703,-0.0121 -0.1179291,-0.002 -0.1014405,0.0125 -0.1168103,0.0173 -0.3157512,0.0983 -0.1280182,0.0522 -0.2606536,0.1152 -0.29422331,0.13974 -0.007823,0.006 -0.0134187,0.026 -0.0142823,0.0518 -0.003139,0.0936 -0.0488961,0.24816 -0.0877433,0.29641 -0.0266824,0.0331 -0.0244931,0.01 0.007461,-0.0786 0.0525205,-0.14573 0.0667882,-0.26006 0.0336339,-0.26951 -0.012948,-0.004 -0.0814295,0.0863 -0.15131399,0.19889 -0.0124536,0.02 -0.0292803,0.0361 -0.0391518,0.0373 -0.0267887,0.004 -0.0233257,-0.0224 0.006314,-0.0468 0.0145302,-0.012 0.026049,-0.0254 0.0255994,-0.0298 -4.5562e-4,-0.005 0.0216308,-0.0404 0.0490678,-0.0803 0.0274371,-0.0397 0.0496818,-0.0743 0.0494331,-0.0767 -2.5022e-4,-0.002 -0.0398424,-0.002 -0.0879843,2.4e-4 -0.10601223,0.006 -0.20851645,-0.0138 -0.24800338,-0.0473 -0.0337878,-0.0286 -0.0270472,-0.0379 0.0150545,-0.021 0.0180721,0.007 0.0656606,0.0203 0.10575226,0.0289 0.0668538,0.0144 0.0810985,0.0143 0.17189847,-2.4e-4 0.0827976,-0.0133 0.10722008,-0.0208 0.14918854,-0.0455 0.10634171,-0.0627 0.23577651,-0.11881 0.41343551,-0.17963 0.061991,-0.0212 0.1124215,-0.0414 0.11207,-0.0448 -6.846e-4,-0.007 -0.1314549,-0.0808 -0.2086183,-0.11808 -0.07517,-0.0364 -0.1643697,-0.0978 -0.2420763,-0.16671 l -0.0718477,-0.0637 -0.0437843,0.006 c -0.0240815,0.002 -0.0687365,0.0174 -0.0992333,0.0322 -0.0463264,0.0223 -0.0748448,0.0292 -0.17334837,0.0416 -0.11741804,0.0148 -0.11811919,0.0148 -0.17182185,-0.007 -0.0648185,-0.027 -0.0831048,-0.0257 -0.14483824,0.0108 -0.0424559,0.0253 -0.0588997,0.0298 -0.15578149,0.0416 -0.08075003,0.01 -0.11091848,0.0108 -0.11854179,0.002 -0.0056236,-0.006 -0.008101,-0.0137 -0.0055043,-0.0173 0.0025977,-0.004 0.05302142,-0.0125 0.11205568,-0.0197 0.095827,-0.012 0.11319634,-0.0164 0.16200938,-0.0434 0.0300715,-0.0167 0.0543426,-0.0335 0.0539365,-0.0374 -0.001598,-0.0156 -0.0695746,-0.0555 -0.11542606,-0.0677 -0.0266577,-0.007 -0.0489615,-0.0184 -0.0496463,-0.025 -0.00178,-0.0174 0.0203491,-0.0172 0.0736871,6.3e-4 0.0439703,0.0146 0.0588528,0.0144 0.0572733,-0.001 -0.001653,-0.0161 -0.083293,-0.12446 -0.11669981,-0.15489 -0.052246,-0.0476 -0.0356625,-0.0553 0.018625,-0.008 0.0399232,0.0343 0.0705834,0.0743 0.15058094,0.19634 0.0509211,0.0778 0.10463407,0.11124 0.18049115,0.11268 0.0516797,10e-4 0.20170906,-0.0347 0.23741006,-0.0565 0.0143968,-0.008 0.0501538,-0.0217 0.0794563,-0.0287 0.0293033,-0.007 0.0519797,-0.0151 0.0503914,-0.018 -0.0127408,-0.0234 -0.0790038,-0.0949 -0.12821963,-0.13842 -0.0371269,-0.0328 -0.0649036,-0.0653 -0.073316,-0.0857 -0.0195118,-0.0474 -0.0267316,-0.053 -0.10353941,-0.0817 -0.0381153,-0.0142 -0.0809251,-0.0355 -0.0951326,-0.0473 -0.0619629,-0.0516 -0.1311396,-0.14158 -0.11775474,-0.1531 0.007421,-0.006 0.0282004,0.0126 0.0464114,0.0424 0.0258037,0.0422 0.0968534,0.0994 0.14718264,0.11832 0.0668357,0.0252 0.0801793,0.0234 0.0766734,-0.0108 -0.004431,-0.0432 0.0172659,-0.0347 0.030556,0.012 0.0202284,0.0709 0.0282873,0.045 0.0210311,-0.0677 -0.00612,-0.095 -0.004968,-0.1116 0.0104162,-0.14944 0.0211712,-0.0521 0.043896,-0.0822 0.0527081,-0.0698 z m 2.66720705,0.52759 c -0.012615,0.0282 -0.035445,0.0643 -0.050735,0.0804 -0.025431,0.0266 -0.033679,0.03 -0.096836,0.0383 -0.079293,0.0108 -0.079337,0.0108 -0.071246,0.10405 0.00375,0.0434 0.00141,0.0545 -0.016899,0.0796 -0.018965,0.026 -0.020117,0.0323 -0.010685,0.0574 0.00583,0.0155 0.01922,0.0361 0.029786,0.046 0.010567,0.01 0.031157,0.05 0.045755,0.0894 0.015502,0.0418 0.032672,0.0745 0.041284,0.0787 0.036014,0.0175 0.073839,0.0524 0.083967,0.0776 0.00606,0.015 0.016648,0.058 0.023538,0.0954 0.013882,0.0754 0.020482,0.0804 0.054353,0.0418 0.035182,-0.0402 0.054436,-0.0502 0.1017801,-0.0528 l 0.045296,-0.002 0.00473,-0.0455 c 0.0092,-0.0883 0.030243,-0.12492 0.075127,-0.13046 l 0.032198,-0.004 -0.010035,-0.0472 c -0.012069,-0.0568 -0.00187,-0.0803 0.045389,-0.10488 l 0.031093,-0.0161 -0.00731,-0.074 c -0.00542,-0.0547 -0.00431,-0.0804 0.00424,-0.0986 0.011335,-0.0241 0.010941,-0.0253 -0.021129,-0.0612 -0.025893,-0.029 -0.036129,-0.05 -0.049285,-0.10092 l -0.016606,-0.0642 -0.094254,0.007 c -0.096792,0.007 -0.116084,0.002 -0.1293559,-0.0298 -0.010478,-0.0258 -0.019562,-0.0182 -0.044157,0.0366 z m 0.1589371,0.16198 c 0.043933,0.0108 0.086683,0.0468 0.089731,0.0766 0.00533,0.0519 -0.00881,0.0797 -0.057104,0.11245 -0.1038938,0.0704 -0.2305143,0.0353 -0.2411294,-0.067 -0.00358,-0.0345 0.024734,-0.0843 0.060096,-0.10585 0.03273,-0.0199 0.1008153,-0.0274 0.1484071,-0.0161 z"
       id="path2408"
       sodipodi:nodetypes="cssssssssssssscccssssssssssssssssssssscccsssssssssssssssssssssssssssssssssssssssssssssssssssssssssssssssssssssssssssssssssscccssssssssssssssssssssssssssssssssccssssssssssscccccccccsscccsccssssc"
       inkscape:connector-curvature="0" />
    <g
       id="g3268"
       transform="matrix(0.00330348,1.670866e-4,1.4688912e-4,-0.00329001,1.425632,292.05673)">
      <path
         id="path3270"
         d="m 398.07083,-291.35993 c 0,-30 -22,-43 -42,-43 -19,0 -41,13 -41,42 0,14 8,37 37,41 -22,19 -53,21 -63,21 -45,0 -79,-25 -93,-209 l -19,-249 c -8,-111 -44,-401.99997 -57,-453.99997 -21.999999,-90 -69.999999,-177 -164.999999,-177 -60.000001,0 -110.000001,35 -110.000001,83 0,30 22,43 42,43 18.999998,0 40.999998,-13 40.999998,-42 0,-14 -8,-37 -36.999998,-41 20.999998,-18 50.999998,-21 64.000001,-21 57,0 93,45 106,209 l 19,248.99997 c 9,121 44.999999,403 56.999999,458 17,76 56,173 151,173 60,0 110,-35 110,-83 z"
         inkscape:connector-curvature="0"
         style="fill:currentColor" />
    </g>
  </g>
</svg>
