<?xml version="1.0" encoding="UTF-8" standalone="no"?>
<!-- Created with Inkscape (http://www.inkscape.org/) -->

<svg
   xmlns:dc="http://purl.org/dc/elements/1.1/"
   xmlns:cc="http://creativecommons.org/ns#"
   xmlns:rdf="http://www.w3.org/1999/02/22-rdf-syntax-ns#"
   xmlns:svg="http://www.w3.org/2000/svg"
   xmlns="http://www.w3.org/2000/svg"
   xmlns:sodipodi="http://sodipodi.sourceforge.net/DTD/sodipodi-0.dtd"
   xmlns:inkscape="http://www.inkscape.org/namespaces/inkscape"
   width="128"
   height="128"
   viewBox="0 0 33.866666 33.866666"
   version="1.1"
   id="svg8"
   inkscape:version="0.92.2 (5c3e80d, 2017-08-06)"
   sodipodi:docname="icon.svg"
   inkscape:export-filename="/home/cde/Repositories/rclteam.github.io/_images/icon-16.png"
   inkscape:export-xdpi="12.066409"
   inkscape:export-ydpi="12.066409">
  <defs
     id="defs2" />
  <sodipodi:namedview
     id="base"
     pagecolor="#ffffff"
     bordercolor="#666666"
     borderopacity="1.0"
     inkscape:pageopacity="0.0"
     inkscape:pageshadow="2"
     inkscape:zoom="4.8337377"
     inkscape:cx="67.043219"
     inkscape:cy="66.197876"
     inkscape:document-units="mm"
     inkscape:current-layer="layer1"
     showgrid="false"
     inkscape:window-width="1920"
     inkscape:window-height="1007"
     inkscape:window-x="0"
     inkscape:window-y="0"
     inkscape:window-maximized="1"
     units="px" />
  <metadata
     id="metadata5">
    <rdf:RDF>
      <cc:Work
         rdf:about="">
        <dc:format>image/svg+xml</dc:format>
        <dc:type
           rdf:resource="http://purl.org/dc/dcmitype/StillImage" />
        <dc:title></dc:title>
      </cc:Work>
    </rdf:RDF>
  </metadata>
  <g
     inkscape:label="Layer 1"
     inkscape:groupmode="layer"
     id="layer1"
     transform="translate(0,-263.13334)">
    <path
       style="fill:#000000;stroke-width:0.0683382"
       d="m 6.2409695,282.4873 c 0.027841,0.0388 -0.040425,0.28135 -0.1517099,0.53902 -0.1905457,0.44125 -0.1996656,0.50745 -0.1564773,1.13584 0.052655,0.76614 0.2243349,1.47621 0.4453374,1.84193 0.2683946,0.44415 0.8354088,1.1049 1.0664592,1.24278 0.1229754,0.0735 0.4824257,0.34767 0.7987746,0.60953 0.6686891,0.55354 1.3769199,1.01182 2.2548445,1.4591 0.343578,0.17504 0.859211,0.44015 1.145849,0.58916 0.629283,0.3271 2.387299,0.94535 3.684943,1.29587 0.555596,0.15008 0.744385,0.16604 1.39327,0.11777 0.480461,-0.0358 1.085217,-0.13908 1.680406,-0.28721 0.511388,-0.12726 1.218707,-0.29994 1.571807,-0.38372 0.353098,-0.0837 0.723592,-0.19322 0.82331,-0.24321 0.09974,-0.05 0.27576,-0.10254 0.39119,-0.11672 0.115436,-0.0142 0.486433,-0.17663 0.824454,-0.36091 l 0.614583,-0.33507 1.097982,-0.0992 c 1.850694,-0.16732 2.035693,-0.32796 1.926769,-1.67317 -0.05584,-0.68958 -0.06106,-0.70658 -0.39445,-1.28803 -0.407505,-0.71063 -0.913943,-1.20258 -1.572649,-1.52762 -0.482879,-0.23827 -0.61992,-0.39263 -0.307799,-0.34671 0.212729,0.0313 0.880528,0.37903 1.163196,0.60569 0.355516,0.28507 0.792861,0.84311 1.112136,1.41903 0.379806,0.68512 0.596913,0.85347 0.978484,0.75871 0.374609,-0.0932 0.612044,-0.36818 0.923649,-1.0704 0.233245,-0.52561 0.264591,-0.66189 0.261812,-1.13842 -0.004,-0.71571 0.04549,-0.94454 0.269687,-1.24219 0.22245,-0.29535 0.569951,-0.49169 1.108597,-0.62634 0.322528,-0.0807 0.390909,-0.0799 0.374663,0.004 -0.02253,0.11637 -0.165373,0.19292 -0.689049,0.36907 -0.444499,0.14951 -0.74044,0.49079 -0.800404,0.92301 -0.06521,0.46997 0.02439,1.4164 0.15347,1.62206 0.129919,0.20692 0.514755,0.2989 0.832161,0.19889 0.113342,-0.0358 0.614643,-0.12923 1.113994,-0.20781 0.499346,-0.0786 0.983934,-0.1857 1.076859,-0.23802 0.09291,-0.0523 0.384423,-0.37487 0.64777,-0.71684 0.547505,-0.71095 0.935796,-1.13816 1.046871,-1.15184 0.158339,-0.0195 0.04502,0.2175 -0.282166,0.59003 -0.186064,0.21188 -0.535086,0.63197 -0.775608,0.93355 l -0.437304,0.54834 -0.646187,0.16664 c -0.366218,0.0946 -0.663817,0.20742 -0.686863,0.26074 -0.05218,0.12076 0.09499,0.64855 0.252859,0.90669 0.232664,0.38045 0.121639,0.38369 2.657097,-0.0777 0.663263,-0.1207 0.733218,-0.12234 0.656101,-0.0154 -0.08942,0.12396 -1.308923,0.42473 -2.133843,0.52629 -0.349103,0.0429 -0.386594,0.0608 -0.294411,0.13992 0.235883,0.20246 1.400088,0.72685 1.766721,0.79576 0.215696,0.0405 0.467788,0.0957 0.560204,0.12263 0.152914,0.0446 0.158278,0.0566 0.05966,0.13392 -0.24996,0.19607 -0.692236,0.0729 -2.009326,-0.55932 -0.323458,-0.15527 -0.634738,-0.27676 -0.691733,-0.26995 -0.05698,0.007 -0.149655,0.0823 -0.20591,0.16789 -0.0869,0.13215 -0.0881,0.24042 -0.0079,0.7203 0.140348,0.84064 0.28101,0.96896 1.323845,1.2076 0.945949,0.21647 1.113861,0.27854 1.128117,0.41694 0.01558,0.15121 -0.355631,0.10324 -0.949376,-0.12254 -0.271071,-0.10313 -0.544833,-0.18107 -0.608351,-0.17325 -0.331668,0.0408 0.158968,0.54582 0.659335,0.67863 0.625931,0.16613 1.203652,0.37623 1.234462,0.44893 0.07276,0.17172 -0.389386,0.0886 -1.126247,-0.20237 -0.762391,-0.30112 -0.799013,-0.32551 -1.11004,-0.73921 -0.529386,-0.70413 -0.861722,-0.86092 -1.089824,-0.51412 -0.158232,0.24059 -0.01543,0.78992 0.31516,1.21214 0.144578,0.18467 0.329003,0.51243 0.409855,0.72835 0.182235,0.48675 0.351021,0.61661 1.315429,1.01218 0.728577,0.29883 1.226057,0.61838 1.168827,0.7508 -0.0425,0.0983 -0.216559,0.0451 -0.524183,-0.16036 -0.144009,-0.0962 -0.551993,-0.28544 -0.906642,-0.42063 -0.354642,-0.1352 -0.695229,-0.29509 -0.756847,-0.35535 -0.06166,-0.0603 -0.274151,-0.38079 -0.47227,-0.71234 -0.397825,-0.66588 -0.703399,-0.91315 -1.027385,-0.83165 -0.249484,0.0628 -0.343472,0.38892 -0.382919,1.32884 -0.03694,0.88052 0.116873,2.07633 0.307104,2.38739 0.06439,0.10502 0.244142,0.32561 0.399674,0.48996 0.409514,0.43276 0.798333,1.00696 0.784965,1.15926 -0.0088,0.10062 -0.07276,0.0562 -0.27171,-0.18924 -0.680573,-0.8394 -0.904524,-1.08177 -0.989887,-1.07127 -0.0509,0.006 -0.115661,0.13559 -0.143943,0.28737 -0.0958,0.51416 -0.292079,1.01149 -0.371762,0.94201 -0.05104,-0.0445 -0.02505,-0.25939 0.08268,-0.68408 0.155205,-0.61172 0.1557,-0.63243 0.04088,-1.71946 -0.06392,-0.60516 -0.145093,-1.18161 -0.180404,-1.28103 -0.09301,-0.26191 -0.40332,-0.3467 -0.638759,-0.17457 -0.09837,0.072 -0.213298,0.1881 -0.25529,0.25808 -0.04202,0.07 -0.177558,0.20034 -0.301246,0.2897 -0.352378,0.25465 -0.367915,0.42459 -0.1789,1.96193 0.123138,1.00153 0.145926,1.34846 0.08904,1.35547 -0.09831,0.0121 -0.16912,-0.25725 -0.325014,-1.23637 -0.06947,-0.43637 -0.145346,-0.79109 -0.168599,-0.78822 -0.04858,0.006 -0.33183,0.9077 -0.386208,1.22955 -0.04609,0.27299 -0.11469,0.4585 -0.13859,0.22649 -0.02867,-0.27816 0.07501,-1.09028 0.34973,-1.84538 0.31066,-0.85388 0.346572,-1.16435 0.210314,-1.81847 -0.119344,-0.57292 -0.268893,-0.79551 -0.64228,-0.95602 -0.204226,-0.0877 -0.275319,-0.16861 -0.354708,-0.40314 -0.231349,-0.68352 -0.299917,-0.82503 -0.48664,-1.0025 -0.176596,-0.16799 -0.270569,-0.18975 -0.922823,-0.21377 -1.077632,-0.0396 -2.040938,0.14115 -2.796576,0.52497 -0.910151,0.46227 -4.641766,1.44422 -5.506176,1.4489 -0.575,0.003 -2.619907,-0.48248 -3.134847,-0.7444 -0.182635,-0.093 -0.343035,-0.0968 -0.947325,-0.0226 -0.814871,0.10001 -0.938337,0.13835 -2.5364286,0.78758 -1.02837,0.41779 -2.0938294,0.92235 -2.3634951,1.11926 -0.062868,0.0459 -0.107794,0.20842 -0.1147289,0.41487 -0.02518,0.74939 -0.3927821,1.9876 -0.7048415,2.37417 -0.2143399,0.26555 -0.196753,0.0809 0.059931,-0.62929 0.4218974,-1.16724 0.5365092,-2.08294 0.2701813,-2.15862 -0.1040114,-0.0295 -0.6541233,0.69139 -1.2155049,1.59294 -0.1000399,0.16067 -0.235209,0.28911 -0.3145069,0.29888 -0.2151935,0.0264 -0.1873755,-0.17941 0.050714,-0.37532 0.1167213,-0.0961 0.2092522,-0.20332 0.2056399,-0.2384 -0.00366,-0.0352 0.1737604,-0.32443 0.3941614,-0.64301 0.2204022,-0.31858 0.3990941,-0.59514 0.3970956,-0.61455 -0.00201,-0.0194 -0.3200535,-0.0185 -0.7067771,0.002 -0.851596,0.0455 -1.6750122,-0.11093 -1.9922106,-0.37843 -0.271417,-0.22893 -0.2172703,-0.30412 0.1209326,-0.16796 0.1451735,0.0585 0.5274519,0.16264 0.8495077,0.23151 0.5370362,0.11483 0.6514639,0.11459 1.38086,-0.002 0.6651132,-0.1069 0.8612987,-0.16664 1.1984311,-0.36452 0.8542427,-0.50142 1.8939923,-0.95183 3.321127,-1.4387 0.497968,-0.16988 0.903081,-0.33132 0.900258,-0.35876 -0.0055,-0.0538 -1.055977,-0.64661 -1.6758306,-0.9457 -0.6038397,-0.29136 -1.320381,-0.7834 -1.9445982,-1.33532 l -0.5771542,-0.51028 -0.3517185,0.0433 c -0.1934467,0.0238 -0.5521595,0.13965 -0.7971404,0.25742 -0.3721399,0.17888 -0.6012273,0.23372 -1.392507,0.33321 -0.9432189,0.11856 -0.9488513,0.11844 -1.3802446,-0.0613 -0.5206862,-0.21682 -0.6675806,-0.20555 -1.1634852,0.0892 -0.3410486,0.20277 -0.4731416,0.23801 -1.2513924,0.33382 -0.64866478,0.0799 -0.89100794,0.0851 -0.95224593,0.0207 -0.0451779,-0.0475 -0.0650749,-0.10976 -0.0442196,-0.13838 0.0208679,-0.0286 0.42592096,-0.0997 0.90014303,-0.15812 0.7697777,-0.0948 0.909306,-0.13211 1.301421,-0.34831 0.2415639,-0.1332 0.436534,-0.26809 0.4332722,-0.29979 -0.012837,-0.12469 -0.5588928,-0.4437 -0.9272172,-0.5417 -0.2141419,-0.0571 -0.3933079,-0.14703 -0.3988091,-0.20046 -0.014298,-0.13887 0.163464,-0.13737 0.5919282,0.005 0.3532137,0.11743 0.4727645,0.11542 0.460076,-0.008 -0.013278,-0.12896 -0.6690925,-0.99683 -0.9374493,-1.24058 -0.4196921,-0.38117 -0.2864769,-0.44307 0.1496144,-0.0695 0.3207029,0.27473 0.5669964,0.59491 1.2096164,1.57256 0.409049,0.62229 0.8405253,0.89087 1.449885,0.90249 0.4151429,0.008 1.6203285,-0.27817 1.9071145,-0.45269 0.1156494,-0.0703 0.4028857,-0.17377 0.6382724,-0.22978 0.2353931,-0.056 0.4175525,-0.12095 0.4047946,-0.14434 -0.1023468,-0.18769 -0.6346372,-0.76065 -1.0299878,-1.10869 -0.2982399,-0.26254 -0.5213707,-0.52253 -0.5889473,-0.68626 -0.1567384,-0.37975 -0.2147346,-0.42537 -0.8317319,-0.65421 -0.3061799,-0.11354 -0.6500707,-0.28407 -0.7642004,-0.3789 -0.4977479,-0.41356 -1.0534441,-1.13395 -0.9459236,-1.22626 0.059614,-0.0511 0.2265339,0.10072 0.3728231,0.33937 0.2072815,0.33809 0.7780237,0.79572 1.1823178,0.94799 0.5368912,0.20219 0.64408,0.18719 0.6159166,-0.0863 -0.035595,-0.34573 0.1386975,-0.27781 0.2454563,0.0957 0.1624944,0.5684 0.2272314,0.36067 0.1689426,-0.54213 -0.049162,-0.76141 -0.039907,-0.89379 0.083673,-1.19689 0.1700685,-0.41707 0.3526162,-0.6585 0.4234041,-0.55995 z m 21.4256685,4.22575 c -0.101339,0.22534 -0.284732,0.51488 -0.407558,0.64342 -0.204287,0.21382 -0.270541,0.23991 -0.777884,0.30649 -0.636962,0.0836 -0.637316,0.0841 -0.572322,0.83343 0.03014,0.34755 0.01134,0.43618 -0.135751,0.63771 -0.152347,0.20884 -0.161599,0.25834 -0.08583,0.45907 0.04677,0.12371 0.154391,0.28954 0.23927,0.36845 0.08489,0.0789 0.250289,0.4012 0.367543,0.71625 0.124527,0.33459 0.262451,0.59665 0.331639,0.63013 0.289302,0.14001 0.593145,0.42006 0.6745,0.62167 0.04864,0.12056 0.133735,0.46443 0.189081,0.76412 0.111515,0.60385 0.164532,0.64447 0.436618,0.33447 0.282614,-0.322 0.437284,-0.40209 0.817599,-0.4234 l 0.363866,-0.0205 0.03801,-0.36421 c 0.07387,-0.7079 0.242938,-1.00066 0.6035,-1.04506 l 0.25865,-0.0319 -0.08061,-0.37794 c -0.09695,-0.45451 -0.01502,-0.6431 0.364616,-0.83953 l 0.249772,-0.12922 -0.05872,-0.59271 c -0.04348,-0.4388 -0.03468,-0.64383 0.03408,-0.78968 0.09105,-0.19333 0.08789,-0.20247 -0.169728,-0.49066 -0.207994,-0.23266 -0.290223,-0.40055 -0.395907,-0.80835 l -0.133394,-0.51471 -0.757141,0.0573 c -0.777531,0.0588 -0.932502,0.0233 -1.039115,-0.23811 -0.08417,-0.20634 -0.157141,-0.14599 -0.354715,0.29338 z m 1.276741,1.2973 c 0.352919,0.0832 0.696324,0.37519 0.720807,0.61292 0.04276,0.41537 -0.07071,0.63817 -0.458716,0.9006 -0.83458,0.5645 -1.851722,0.28272 -1.936992,-0.53662 -0.02873,-0.2756 0.19869,-0.67487 0.482747,-0.84775 0.26292,-0.16 0.809849,-0.21925 1.192154,-0.12915 z"
       id="path2408"
       sodipodi:nodetypes="cssssssssssssscccssssssssssssssssssssscccsssssssssssssssssssssssssssssssssssssssssssssssssssssssssssssssssssssssssssssssssscccssssssssssssssssssssssssssssssssccssssssssssscccccccccsscccsccssssc"
       inkscape:connector-curvature="0" />
    <g
       id="g3268"
       transform="matrix(0.02653691,0.00133827,0.00117996,-0.0263511,11.366147,257.39817)">
      <path
         id="path3270"
         d="m 398.07083,-291.35993 c 0,-30 -22,-43 -42,-43 -19,0 -41,13 -41,42 0,14 8,37 37,41 -22,19 -53,21 -63,21 -45,0 -79,-25 -93,-209 l -19,-249 c -8,-111 -44,-401.99997 -57,-453.99997 -21.999999,-90 -69.999999,-177 -164.999999,-177 -60.000001,0 -110.000001,35 -110.000001,83 0,30 22,43 42,43 18.999998,0 40.999998,-13 40.999998,-42 0,-14 -8,-37 -36.999998,-41 20.999998,-18 50.999998,-21 64.000001,-21 57,0 93,45 106,209 l 19,248.99997 c 9,121 44.999999,403 56.999999,458 17,76 56,173 151,173 60,0 110,-35 110,-83 z"
         inkscape:connector-curvature="0"
         style="fill:currentColor" />
    </g>
  </g>
</svg>
