<?xml version="1.0" encoding="UTF-8" standalone="no"?>
<!-- Created with Inkscape (http://www.inkscape.org/) -->

<svg
   xmlns:dc="http://purl.org/dc/elements/1.1/"
   xmlns:cc="http://creativecommons.org/ns#"
   xmlns:rdf="http://www.w3.org/1999/02/22-rdf-syntax-ns#"
   xmlns:svg="http://www.w3.org/2000/svg"
   xmlns="http://www.w3.org/2000/svg"
   xmlns:sodipodi="http://sodipodi.sourceforge.net/DTD/sodipodi-0.dtd"
   xmlns:inkscape="http://www.inkscape.org/namespaces/inkscape"
   width="32"
   height="32"
   viewBox="0 0 8.4666666 8.4666666"
   version="1.1"
   id="svg8"
   inkscape:version="0.92.2 (5c3e80d, 2017-08-06)"
   sodipodi:docname="icon-32.svg"
   inkscape:export-filename="/home/cde/Repositories/rclteam.github.io/_images/icon-32.png"
   inkscape:export-xdpi="96.000008"
   inkscape:export-ydpi="96.000008">
  <defs
     id="defs2" />
  <sodipodi:namedview
     id="base"
     pagecolor="#ffffff"
     bordercolor="#666666"
     borderopacity="1.0"
     inkscape:pageopacity="0.0"
     inkscape:pageshadow="2"
     inkscape:zoom="1.8021992"
     inkscape:cx="-64.303965"
     inkscape:cy="171.39722"
     inkscape:document-units="mm"
     inkscape:current-layer="layer1"
     showgrid="false"
     inkscape:window-width="1920"
     inkscape:window-height="1007"
     inkscape:window-x="0"
     inkscape:window-y="0"
     inkscape:window-maximized="1"
     units="px" />
  <metadata
     id="metadata5">
    <rdf:RDF>
      <cc:Work
         rdf:about="">
        <dc:format>image/svg+xml</dc:format>
        <dc:type
           rdf:resource="http://purl.org/dc/dcmitype/StillImage" />
        <dc:title></dc:title>
      </cc:Work>
    </rdf:RDF>
  </metadata>
  <g
     inkscape:label="Layer 1"
     inkscape:groupmode="layer"
     id="layer1"
     transform="translate(0,-288.53334)">
    <path
       style="fill:#000000;stroke-width:0.01710445"
       d="m 1.5557789,293.37698 c 0.00696,0.01 -0.010103,0.0707 -0.03792,0.1351 -0.047627,0.11061 -0.049906,0.12727 -0.039111,0.28468 0.013159,0.19211 0.056072,0.36999 0.1113116,0.46165 0.067085,0.11121 0.2088096,0.27692 0.2665604,0.31147 0.030737,0.0201 0.1205827,0.0871 0.1996526,0.15277 0.1671366,0.13871 0.3441596,0.25357 0.5635962,0.36567 0.085877,0.0438 0.2147587,0.11041 0.2864036,0.14775 0.1572882,0.0819 0.5967031,0.23679 0.9210479,0.32478 0.1388702,0.0375 0.1860585,0.0417 0.3482464,0.0297 0.1200909,-0.01 0.2712489,-0.0349 0.4200157,-0.0721 0.1278211,-0.0317 0.3046146,-0.0751 0.3928716,-0.0961 0.088257,-0.0217 0.1808622,-0.0484 0.2057855,-0.061 0.024929,-0.012 0.068927,-0.0257 0.097778,-0.0291 0.028855,-0.002 0.1215827,-0.0444 0.2060714,-0.0903 l 0.1536158,-0.0841 0.2744395,-0.0249 c 0.462579,-0.0419 0.5088193,-0.0821 0.481594,-0.41933 -0.013954,-0.17304 -0.015259,-0.17705 -0.098591,-0.32283 -0.1018557,-0.17806 -0.2284394,-0.30142 -0.3930822,-0.38288 -0.1206953,-0.0598 -0.154949,-0.0984 -0.076934,-0.0869 0.053172,0.008 0.2200871,0.0949 0.2907398,0.15176 0.088861,0.0715 0.1981738,0.21126 0.2779772,0.35566 0.094933,0.17183 0.1491985,0.21391 0.2445711,0.1901 0.093634,-0.0241 0.1529813,-0.0923 0.230865,-0.26825 0.0583,-0.13189 0.066134,-0.16602 0.065441,-0.28534 -9.999e-4,-0.17947 0.011385,-0.2368 0.067407,-0.31133 0.055601,-0.0739 0.1424583,-0.12326 0.2770928,-0.15699 0.080615,-0.0201 0.097708,-0.0201 0.093646,9.9e-4 -0.00564,0.0291 -0.041335,0.0484 -0.1722265,0.0925 -0.1111018,0.0373 -0.1850726,0.12306 -0.2000591,0.23128 -0.016284,0.11783 0.0061,0.35497 0.03836,0.40652 0.032473,0.0518 0.1286623,0.0749 0.2079977,0.05 0.028331,-0.01 0.1536299,-0.0323 0.2784418,-0.052 0.1248113,-0.0201 0.2459332,-0.0466 0.2691597,-0.0598 0.023223,-0.012 0.096087,-0.0939 0.1619102,-0.17966 0.1368483,-0.17826 0.2339013,-0.28528 0.2616643,-0.28869 0.039577,-0.004 0.011264,0.0544 -0.070527,0.14795 -0.046508,0.053 -0.1337442,0.15818 -0.1938629,0.2339 l -0.1093028,0.13751 -0.1615126,0.0418 c -0.091535,0.0241 -0.1659199,0.052 -0.1716804,0.0652 -0.013051,0.0303 0.023743,0.1626 0.063201,0.22716 0.058155,0.0953 0.030403,0.0962 0.6641388,-0.0201 0.1657813,-0.0303 0.1832655,-0.0305 0.1639923,-0.004 -0.022351,0.0311 -0.3271641,0.1064 -0.5333519,0.13209 -0.087259,0.01 -0.096627,0.014 -0.073587,0.0351 0.058958,0.0508 0.3499505,0.18208 0.4415902,0.19954 0.053915,0.01 0.1169225,0.0241 0.1400227,0.0309 0.038219,0.012 0.03956,0.0141 0.014898,0.0335 -0.062478,0.0492 -0.1730236,0.0201 -0.5022292,-0.14012 -0.080848,-0.0389 -0.1586515,-0.0695 -0.1728971,-0.0676 -0.014236,0.002 -0.037406,0.0217 -0.051467,0.0422 -0.021721,0.0329 -0.022022,0.0602 -0.00197,0.18046 0.035081,0.21078 0.070238,0.24286 0.3308938,0.30266 0.236439,0.0542 0.2784085,0.0699 0.2819716,0.10459 0.0039,0.0377 -0.088889,0.0257 -0.2372955,-0.0305 -0.067755,-0.0257 -0.1361798,-0.0454 -0.1520557,-0.0434 -0.0829,0.01 0.039735,0.13691 0.1647994,0.17003 0.1564509,0.0417 0.3008519,0.0942 0.3085526,0.11241 0.018191,0.0432 -0.097328,0.0217 -0.2815042,-0.0508 -0.190558,-0.0755 -0.1997138,-0.0817 -0.2774533,-0.18529 -0.1323186,-0.17665 -0.2153866,-0.21586 -0.2724006,-0.12888 -0.039548,0.0602 -0.00388,0.19794 0.078774,0.30381 0.036137,0.0462 0.082233,0.12847 0.102442,0.18267 0.04555,0.12186 0.087737,0.15438 0.3287903,0.2537 0.1821071,0.0749 0.3064516,0.15498 0.2921469,0.1881 -0.010621,0.0245 -0.054129,0.012 -0.1310175,-0.0402 -0.035995,-0.0241 -0.1379687,-0.0715 -0.226614,-0.10559 -0.088644,-0.0339 -0.1737705,-0.0739 -0.1891727,-0.0891 -0.0154,-0.014 -0.068523,-0.0953 -0.1180429,-0.17846 -0.099436,-0.16702 -0.1758124,-0.22887 -0.2567938,-0.20839 -0.062357,0.0161 -0.085851,0.0976 -0.09571,0.33305 -0.00922,0.22066 0.029212,0.52039 0.07676,0.59836 0.016083,0.0263 0.061022,0.0817 0.099898,0.12285 0.1023577,0.1084 0.1995411,0.25236 0.1962001,0.29056 -0.00219,0.0253 -0.018191,0.014 -0.067913,-0.0474 -0.1701082,-0.2103 -0.2260849,-0.27112 -0.247421,-0.26847 -0.01273,10e-4 -0.028911,0.0339 -0.035978,0.0721 -0.023943,0.12887 -0.073005,0.25351 -0.092921,0.23609 -0.01275,-0.012 -0.00626,-0.065 0.020665,-0.17164 0.038793,-0.15316 0.038916,-0.15858 0.01022,-0.43093 -0.015962,-0.15176 -0.036268,-0.29618 -0.045092,-0.32109 -0.023247,-0.0658 -0.1008096,-0.0869 -0.1596554,-0.0438 -0.024586,0.0161 -0.053314,0.0472 -0.063809,0.0648 -0.010521,0.0161 -0.044381,0.0502 -0.075296,0.0725 -0.088076,0.0638 -0.091961,0.10639 -0.044717,0.49172 0.030778,0.25099 0.036474,0.33795 0.022255,0.33972 -0.024572,0.002 -0.042271,-0.0646 -0.081237,-0.30987 -0.017368,-0.10941 -0.03633,-0.19834 -0.042141,-0.19753 -0.012147,10e-4 -0.08294,0.22742 -0.096531,0.30816 -0.011525,0.0684 -0.028666,0.11502 -0.034639,0.0568 -0.00717,-0.0697 0.018753,-0.27327 0.087415,-0.46252 0.077649,-0.21393 0.086626,-0.29184 0.052567,-0.45576 -0.029831,-0.14353 -0.06721,-0.19954 -0.1605389,-0.23969 -0.051045,-0.0217 -0.068817,-0.0422 -0.08866,-0.10097 -0.057824,-0.17124 -0.074965,-0.20669 -0.1216349,-0.25126 -0.04414,-0.0421 -0.067628,-0.0474 -0.2306586,-0.0534 -0.2693531,-0.01 -0.5101304,0.0353 -0.6990015,0.13148 -0.2274912,0.11583 -1.1602046,0.36198 -1.376263,0.36313 -0.1437212,7.8e-4 -0.6548431,-0.12085 -0.783552,-0.18649 -0.045648,-0.0241 -0.085741,-0.0243 -0.2367828,-0.004 -0.2036762,0.0251 -0.2345363,0.0347 -0.6339778,0.19733 -0.25704,0.10479 -0.5233507,0.23126 -0.5907533,0.28052 -0.015707,0.012 -0.026943,0.0522 -0.028677,0.10399 -0.0063,0.18789 -0.098176,0.49816 -0.1761745,0.59502 -0.053574,0.0665 -0.049178,0.0201 0.014981,-0.15778 0.1054527,-0.29255 0.1341,-0.52206 0.067531,-0.54103 -0.025998,-0.008 -0.1634973,0.17325 -0.3038142,0.39926 -0.025005,0.0402 -0.05879,0.0725 -0.07861,0.0749 -0.053787,0.008 -0.046834,-0.045 0.012677,-0.094 0.029174,-0.0241 0.052302,-0.051 0.0514,-0.0598 -9.148e-4,-0.01 0.043431,-0.0811 0.09852,-0.1612 0.055089,-0.0797 0.099753,-0.14915 0.099254,-0.15397 -5.024e-4,-0.004 -0.079997,-0.004 -0.1766584,4.8e-4 -0.2128555,0.012 -0.4186676,-0.0277 -0.49795101,-0.0949 -0.0678405,-0.0574 -0.0543064,-0.0761 0.030227,-0.0421 0.0362859,0.014 0.13183601,0.0408 0.21233361,0.058 0.1342317,0.0289 0.1628328,0.0287 0.3451446,-4.8e-4 0.1662443,-0.0267 0.2152807,-0.0417 0.2995466,-0.0913 0.2135172,-0.12586 0.4734015,-0.2385 0.8301123,-0.36059 0.124468,-0.0426 0.2257244,-0.0831 0.2250186,-0.0899 -0.00137,-0.014 -0.2639403,-0.1622 -0.4188721,-0.23703 -0.1509293,-0.0731 -0.330028,-0.19633 -0.4860504,-0.33466 l -0.1442586,-0.12788 -0.087912,0.012 c -0.048352,0.004 -0.1380119,0.0349 -0.1992445,0.0646 -0.093016,0.0448 -0.1502764,0.0586 -0.3480558,0.0835 -0.2357566,0.0297 -0.2371644,0.0297 -0.34499073,-0.0141 -0.13014516,-0.0542 -0.16686111,-0.0516 -0.29081197,0.0217 -0.0852446,0.0508 -0.11826115,0.0598 -0.31278425,0.0835 -0.16213312,0.0201 -0.22270653,0.0217 -0.23801291,0.004 -0.01129129,-0.012 -0.01626551,-0.0275 -0.01105175,-0.0347 0.0052158,-0.008 0.10645851,-0.0251 0.22498984,-0.0395 0.19240525,-0.0241 0.2272801,-0.0329 0.32528886,-0.0871 0.0603788,-0.0335 0.10911123,-0.0673 0.10829584,-0.0751 -0.003209,-0.0313 -0.13969464,-0.11141 -0.23175702,-0.1359 -0.0535244,-0.014 -0.0983068,-0.0369 -0.0996818,-0.0502 -0.003574,-0.0349 0.0408577,-0.0345 0.14795188,0.001 0.0882853,0.0293 0.11816699,0.0289 0.11499561,-0.002 -0.003319,-0.0323 -0.16723899,-0.24985 -0.23431451,-0.31093 -0.10490159,-0.0956 -0.0716046,-0.11101 0.037396,-0.0161 0.0801594,0.0688 0.14172015,0.14915 0.30234239,0.39414 0.1022414,0.15618 0.21008844,0.22331 0.36239732,0.2262 0.1037645,0.002 0.4049994,-0.0697 0.4766813,-0.11342 0.028906,-0.0161 0.1007008,-0.0436 0.1595355,-0.0576 0.058836,-0.0141 0.1043669,-0.0303 0.1011779,-0.0361 -0.025581,-0.047 -0.158627,-0.19051 -0.2574445,-0.27787 -0.074545,-0.0658 -0.130316,-0.13109 -0.1472067,-0.17204 -0.039177,-0.0952 -0.053673,-0.10639 -0.2078906,-0.164 -0.076529,-0.0285 -0.1624846,-0.0713 -0.191011,-0.095 -0.12441158,-0.10358 -0.2633073,-0.28421 -0.23643265,-0.30733 0.0149002,-0.012 0.0566219,0.0253 0.0931867,0.0851 0.0518097,0.0847 0.19446605,0.19954 0.29551915,0.23752 0.1341953,0.0506 0.1609871,0.047 0.1539479,-0.0217 -0.0089,-0.0867 0.034667,-0.0697 0.061352,0.0241 0.040615,0.14233 0.056796,0.0903 0.042227,-0.1359 -0.012288,-0.19071 -0.00998,-0.22403 0.020914,-0.29999 0.042508,-0.10459 0.088136,-0.16502 0.1058294,-0.14012 z m 5.3553242,1.0591 c -0.025329,0.0566 -0.071168,0.12908 -0.1018678,0.1614 -0.051061,0.0534 -0.067622,0.0602 -0.1944311,0.0769 -0.1592077,0.0217 -0.159296,0.0217 -0.1430506,0.20887 0.00753,0.0871 0.00283,0.10941 -0.033931,0.15979 -0.038079,0.0522 -0.040392,0.0648 -0.021454,0.11523 0.011706,0.0311 0.038591,0.0725 0.059806,0.0923 0.021217,0.0201 0.062558,0.10037 0.091869,0.17947 0.031125,0.0839 0.0656,0.14955 0.082892,0.15798 0.07231,0.0351 0.1482569,0.10519 0.1685923,0.15578 0.012167,0.0301 0.033427,0.11643 0.04726,0.19151 0.027873,0.15136 0.041125,0.16139 0.1091321,0.0839 0.07064,-0.0807 0.1092988,-0.10078 0.2043582,-0.10599 l 0.090947,-0.004 0.0095,-0.0913 c 0.018472,-0.17725 0.060723,-0.25077 0.1508429,-0.26189 l 0.064648,-0.008 -0.020149,-0.0947 c -0.024233,-0.11402 -0.00375,-0.1612 0.091134,-0.21054 l 0.06243,-0.0323 -0.014677,-0.14855 c -0.010883,-0.10981 -0.00865,-0.1614 0.00851,-0.19793 0.022759,-0.0484 0.021968,-0.0508 -0.042424,-0.12286 -0.051989,-0.0582 -0.072541,-0.10037 -0.098956,-0.20259 l -0.033342,-0.12887 -0.1892469,0.0141 c -0.1943428,0.014 -0.2330781,0.004 -0.2597259,-0.0598 -0.021038,-0.0518 -0.039277,-0.0365 -0.08866,0.0735 z m 0.3191202,0.32517 c 0.08821,0.0217 0.1740455,0.094 0.1801654,0.15377 0.010702,0.10418 -0.017689,0.15999 -0.1146556,0.22573 -0.2086021,0.14133 -0.4628358,0.0709 -0.4841492,-0.13449 -0.00719,-0.0693 0.049662,-0.16923 0.1206631,-0.21249 0.065717,-0.0399 0.202421,-0.055 0.2979777,-0.0323 z"
       id="path2408"
       sodipodi:nodetypes="cssssssssssssscccssssssssssssssssssssscccsssssssssssssssssssssssssssssssssssssssssssssssssssssssssssssssssssssssssssssssssscccssssssssssssssssssssssssssssssssccssssssssssscccccccccsscccsccssssc"
       inkscape:connector-curvature="0" />
    <g
       id="g3268"
       transform="matrix(0.00663286,3.3541544e-4,2.949298e-4,-0.00660448,2.8368119,287.08879)">
      <path
         id="path3270"
         d="m 398.07083,-291.35993 c 0,-30 -22,-43 -42,-43 -19,0 -41,13 -41,42 0,14 8,37 37,41 -22,19 -53,21 -63,21 -45,0 -79,-25 -93,-209 l -19,-249 c -8,-111 -44,-401.99997 -57,-453.99997 -21.999999,-90 -69.999999,-177 -164.999999,-177 -60.000001,0 -110.000001,35 -110.000001,83 0,30 22,43 42,43 18.999998,0 40.999998,-13 40.999998,-42 0,-14 -8,-37 -36.999998,-41 20.999998,-18 50.999998,-21 64.000001,-21 57,0 93,45 106,209 l 19,248.99997 c 9,121 44.999999,403 56.999999,458 17,76 56,173 151,173 60,0 110,-35 110,-83 z"
         inkscape:connector-curvature="0"
         style="fill:currentColor" />
    </g>
  </g>
</svg>
